<svg height="488pt" viewBox="0 -12 488 487" width="488pt" xmlns="http://www.w3.org/2000/svg"><path d="m39.9375 123.589844v34.390625c5.523438-4.714844 12.699219-7.585938 20.558594-7.585938.222656 0 .4375.03125.65625.035157v-9.683594c0-1.003906.039062-2.003906.070312-3.003906-8.402344-2.601563-15.753906-7.585938-21.285156-14.152344zm0 0" fill="#4671c6"/><path d="m278.851562 137.039062h-10.714843c.050781 1.230469.085937 2.464844.085937 3.707032v9.683594c.21875-.003907.429688-.035157.652344-.035157 8.199219 0 15.644531 3.128907 21.253906 8.210938v-29.269531c-1.765625 4.507812-6.144531 7.703124-11.277344 7.703124zm0 0" fill="#4671c6"/><path d="m228.386719 303.945312h-16.753907c-.035156 0-.074218-.007812-.109374-.007812l-.003907.007812h-110.21875c-29.117187 0-52.722656 23.605469-52.722656 52.722657v47.867187h232.53125v-47.867187c0-29.117188-23.601563-52.722657-52.722656-52.722657zm0 0" fill="#a4c9ff"/><path d="m164.84375 291.816406c-16.890625 0-32.832031-4.019531-46.910156-11.140625v21.300781c0 .742188.105468 1.472657.261718 2.1875.003907 0 .007813 0 .011719-.003906.152344.71875.382813 1.414063.675781 2.082032.039063.085937.074219.175781.113282.261718.128906.273438.273437.539063.425781.800782.148437.253906.3125.496093.488281.738281.09375.132812.175782.269531.273438.394531l6.664062 8.472656c6.632813 8.4375 15.835938 14.546875 26.253906 16.984375 1.394532.328125 2.847657.613281 4.34375.835938 16.914063 2.535156 33.832032-4.667969 44.347657-18.234375l9.714843-12.53125c.132813-.671875.21875-1.355469.21875-2.042969v-21.230469c-14.070312 7.109375-30 11.125-46.882812 11.125zm0 0" fill="#f9cfcf"/><path d="m268.875 150.394531c-.21875 0-.433594.03125-.652344.035157v-9.683594c0-56.578125-46.285156-102.445313-103.378906-102.445313s-103.378906 45.867188-103.378906 102.445313v9.683594c-.21875-.003907-.429688-.035157-.652344-.035157-17.417969 0-31.539062 13.996094-31.539062 31.257813 0 17.261718 14.117187 31.253906 31.539062 31.253906 1.144531 0 2.273438-.066406 3.382812-.183594 10.667969 45.320313 51.664063 79.09375 100.648438 79.09375s89.980469-33.773437 100.648438-79.09375c1.113281.117188 2.238281.183594 3.382812.183594 17.417969 0 31.539062-13.992188 31.539062-31.253906 0-17.265625-14.117187-31.257813-31.539062-31.257813zm0 0" fill="#f9cfcf"/><g fill="#3762cc"><path d="m113.472656 197.910156c-5.984375 0-10.851562-4.867187-10.851562-10.851562v-18.085938c0-5.984375 4.867187-10.851562 10.851562-10.851562 5.980469 0 10.851563 4.867187 10.851563 10.851562v18.085938c0 5.984375-4.867188 10.851562-10.851563 10.851562zm0 0"/><path d="m215.726562 197.910156c-5.984374 0-10.851562-4.867187-10.851562-10.851562v-18.085938c0-5.984375 4.867188-10.851562 10.851562-10.851562 5.984376 0 10.851563 4.867187 10.851563 10.851562v18.085938c0 5.984375-4.867187 10.851562-10.851563 10.851562zm0 0"/><path d="m164.84375 295.816406c-49.027344 0-91.203125-32.277344-103.71875-78.914062-.105469 0-.210938.003906-.3125.003906-19.597656 0-35.539062-15.816406-35.539062-35.253906 0-18.320313 14.15625-33.421875 32.191406-35.101563v-5.800781c0-58.695312 48.167968-106.449219 107.378906-106.449219 59.207031 0 107.375 47.753907 107.375 106.449219v5.800781c18.035156 1.679688 32.195312 16.78125 32.195312 35.101563 0 19.441406-15.941406 35.253906-35.539062 35.253906-.105469 0-.210938 0-.316406-.003906-12.511719 46.636718-54.6875 78.914062-103.714844 78.914062zm-100.644531-87.097656c1.835937 0 3.460937 1.261719 3.890625 3.085938 10.53125 44.753906 50.320312 76.011718 96.753906 76.011718 46.429688 0 86.21875-31.257812 96.753906-76.011718.457032-1.960938 2.296875-3.28125 4.3125-3.0625 1.035156.109374 2.003906.164062 2.964844.164062 15.183594 0 27.539062-12.226562 27.539062-27.253906 0-15.019532-12.339843-27.242188-27.511718-27.253906-.273438.015624-.441406.027343-.609375.03125-1.078125.019531-2.109375-.394532-2.875-1.144532-.765625-.753906-1.199219-1.78125-1.199219-2.855468v-9.679688c0-54.285156-44.582031-98.449219-99.375-98.449219-54.796875 0-99.378906 44.164063-99.378906 98.445313v9.683594c0 1.074218-.433594 2.101562-1.199219 2.851562-.761719.753906-1.808594 1.203125-2.875 1.148438-.167969-.003907-.339844-.015626-.507813-.027344-.003906 0-.007812 0-.011718 0-15.253906 0-27.597656 12.226562-27.597656 27.25 0 15.027344 12.351562 27.253906 27.539062 27.253906.957031 0 1.925781-.054688 2.960938-.164062.140624-.015626.285156-.023438.425781-.023438zm0 0"/></g><path d="m278.851562 137.039062h-26.488281c-20.640625 0-37.371093-16.730468-37.371093-37.367187v-63.085937c0-12.382813 10.039062-22.421876 22.421874-22.421876h2.933594c27.957032 0 50.621094 22.664063 50.621094 50.621094v60.136719c.003906 6.691406-5.421875 12.117187-12.117188 12.117187zm0 0" fill="#4671c6"/><path d="m278.851562 141.039062h-26.488281c-22.8125 0-41.371093-18.558593-41.371093-41.367187v-63.085937c0-14.570313 11.855468-26.421876 26.421874-26.421876h2.933594c30.121094 0 54.621094 24.5 54.621094 54.621094v60.136719c.003906 8.886719-7.230469 16.117187-16.117188 16.117187zm-41.4375-122.875c-10.15625 0-18.417968 8.265626-18.417968 18.421876v63.085937c0 18.398437 14.96875 33.367187 33.367187 33.367187h26.492188c4.472656 0 8.117187-3.640624 8.117187-8.117187v-60.136719c0-25.707031-20.914062-46.621094-46.621094-46.621094zm0 0" fill="#3762cc"/><path d="m281.109375 408.535156h-232.53125c-2.207031 0-4-1.792968-4-4v-47.867187c0-31.277344 25.445313-56.722657 56.722656-56.722657h12.632813v-19.269531c0-1.390625.722656-2.683593 1.90625-3.410156 1.183594-.730469 2.660156-.789063 3.898437-.160156 14.046875 7.105469 29.222657 10.707031 45.105469 10.707031 15.871094 0 31.039062-3.597656 45.082031-10.695312 1.238281-.628907 2.710938-.566407 3.898438.164062 1.183593.726562 1.902343 2.015625 1.902343 3.40625v19.257812h12.660157c31.277343 0 56.722656 25.445313 56.722656 56.722657v47.867187c0 2.207032-1.789063 4-4 4zm-228.53125-8h224.535156v-43.867187c0-26.867188-21.855469-48.722657-48.722656-48.722657h-16.757813c-.035156 0-.074218 0-.113281 0-1.199219 0-2.339843-.539062-3.097656-1.464843-.761719-.925781-1.070313-2.140625-.835937-3.320313.097656-.484375.140624-.890625.140624-1.242187v-14.9375c-13.515624 5.867187-27.910156 8.835937-42.882812 8.835937-14.980469 0-29.386719-2.972656-42.910156-8.84375v15.003906c0 .355469.082031.800782.15625 1.1875.234375 1.175782-.070313 2.394532-.832032 3.320313-.761718.925781-1.894531 1.460937-3.09375 1.460937h-16.863281c-26.867187 0-48.722656 21.855469-48.722656 48.722657zm0 0" fill="#3762cc"/><path d="m117.757812 295.414062h-15.980468c-2.148438 0-4.207032.773438-5.71875 2.140626l-9.589844 8.6875c-1.476562 1.335937-1.550781 3.460937-.175781 4.878906l51.800781 53.429687c2.800781 2.890625 7.980469 2.320313 9.921875-1.085937l16.636719-29.214844zm0 0" fill="#e0ebfc"/><path d="m211.195312 295.414062h15.980469c2.148438 0 4.207031.773438 5.71875 2.140626l9.589844 8.6875c1.476563 1.335937 1.550781 3.460937.175781 4.878906l-51.800781 53.429687c-2.800781 2.890625-7.980469 2.320313-9.921875-1.085937l-16.636719-29.214844zm0 0" fill="#e0ebfc"/><path d="m157.386719 139.773438h-82.703125c-25.078125 0-45.410156-20.328126-45.410156-45.40625v-82.6875c0-3.964844 3.214843-7.179688 7.179687-7.179688h140.667969c20.917968 0 37.871094 16.957031 37.871094 37.875v39.792969c0 31.8125-25.789063 57.605469-57.605469 57.605469zm0 0" fill="#4671c6"/><path d="m157.386719 143.773438h-82.707031c-27.242188 0-49.40625-22.164063-49.40625-49.40625v-82.6875c0-6.164063 5.011718-11.179688 11.175781-11.179688h140.671875c23.089844 0 41.871094 18.785156 41.871094 41.875v39.792969c0 33.96875-27.632813 61.605469-61.605469 61.605469zm-120.9375-135.273438c-1.75 0-3.175781 1.425781-3.175781 3.179688v82.683593c0 22.835938 18.574218 41.410157 41.40625 41.410157h82.707031c29.558593 0 53.605469-24.046876 53.605469-53.609376v-39.789062c0-18.679688-15.195313-33.875-33.871094-33.875zm0 0" fill="#3762cc"/><path d="m173.617188 388.648438h-17.804688c-2.457031 0-4.453125-1.992188-4.453125-4.453126v-48.964843h26.707031v48.964843c.003906 2.457032-1.988281 4.453126-4.449218 4.453126zm0 0" fill="#e0ebfc"/><path d="m142.644531 370.410156c-2.808593 0-5.511719-1.101562-7.425781-3.074218l-51.796875-53.429688c-1.425781-1.46875-2.171875-3.375-2.109375-5.371094.066406-2.007812.945312-3.875 2.472656-5.257812l9.589844-8.6875c2.257812-2.046875 5.242188-3.175782 8.402344-3.175782h15.980468c.933594 0 1.835938.328126 2.550782.921876l46.898437 38.832031c1.496094 1.238281 1.886719 3.375.921875 5.058593l-16.636718 29.21875c-1.53125 2.6875-4.265626 4.46875-7.496094 4.875-.449219.058594-.902344.089844-1.351563.089844zm-53.035156-61.617187 51.355469 52.972656c.472656.488281 1.230468.722656 2.023437.621094.703125-.089844 1.28125-.425781 1.550781-.902344l14.976563-26.296875-43.199219-35.773438h-14.539062c-1.152344 0-2.257813.402344-3.035156 1.105469zm0 0" fill="#3762cc"/><path d="m186.308594 370.410156c-.449219 0-.902344-.027344-1.351563-.085937-3.230469-.410157-5.964843-2.1875-7.496093-4.878907l-16.636719-29.214843c-.960938-1.6875-.570313-3.824219.921875-5.058594l46.898437-38.835937c.714844-.59375 1.621094-.917969 2.550781-.917969h15.980469c3.160157 0 6.140625 1.125 8.398438 3.171875l9.59375 8.691406c1.527343 1.382812 2.402343 3.25 2.46875 5.257812.0625 1.996094-.683594 3.902344-2.105469 5.367188l-51.800781 53.429688c-1.910157 1.96875-4.613281 3.074218-7.421875 3.074218zm-16.871094-35.222656 14.976562 26.296875c.273438.476563.851563.816406 1.546876.902344.796874.101562 1.554687-.128907 2.027343-.621094l51.355469-52.96875-9.136719-8.277344c-.773437-.703125-1.878906-1.105469-3.03125-1.105469h-14.539062zm0 0" fill="#3762cc"/><path d="m182.128906 228.125h-34.59375c-1.886718 0-3.417968 1.527344-3.417968 3.414062v8.535157c0 3.15625 1.347656 6.222656 3.839843 8.734375 2.980469 3.003906 7.359375 4.949218 12.15625 5.5h9.433594c4.796875-.550782 9.175781-2.496094 12.15625-5.5 2.492187-2.511719 3.839844-5.578125 3.839844-8.734375v-8.535157c0-1.886718-1.527344-3.414062-3.414063-3.414062zm0 0" fill="#f9a7a7"/><path d="m169.550781 257.308594h-9.4375c-.113281 0-.226562-.007813-.339843-.019532-5.550782-.636718-10.5-2.898437-13.945313-6.367187-3.035156-3.0625-4.707031-6.914063-4.707031-10.847656v-8.535157c0-3.539062 2.875-6.417968 6.414062-6.417968h34.59375c3.539063 0 6.417969 2.878906 6.417969 6.417968v8.535157c0 3.933593-1.671875 7.785156-4.707031 10.847656-3.445313 3.46875-8.394532 5.730469-13.949219 6.367187-.113281.011719-.226563.019532-.339844.019532zm-9.261719-6h9.085938c4.074219-.5 7.785156-2.175782 10.203125-4.613282 1.941406-1.957031 2.96875-4.246093 2.96875-6.621093v-8.535157c0-.230468-.1875-.417968-.417969-.417968h-34.59375c-.230468 0-.417968.1875-.417968.417968v8.535157c0 2.375 1.027343 4.664062 2.96875 6.621093 2.417968 2.4375 6.128906 4.113282 10.203124 4.613282zm0 0" fill="#3762cc"/><path d="m156.480469 385.949219v72.667969l-152.480469.714843v-93.859375c0-9.84375 6.441406-17.265625 13.414062-15.464844zm0 0" fill="#6bdddd"/><path d="m173.90625 385.949219v72.667969l152.480469.714843v-93.859375c0-9.84375-6.4375-17.265625-13.414063-15.464844zm0 0" fill="#6bdddd"/><path d="m198.964844 422.46875v36.453125l109.753906.410156v-53.960937c0-5.660156-4.632812-9.925782-9.65625-8.890625l-94.886719 19.585937c-3.035156.628906-5.210937 3.300782-5.210937 6.402344zm0 0" fill="#e0ebfc"/><path d="m326.386719 463.332031c-.003907 0-.011719 0-.015625 0l-152.480469-.714843c-2.203125-.011719-3.984375-1.800782-3.984375-4v-72.667969c0-1.824219 1.234375-3.414063 3-3.875l139.070312-35.941407c3.820313-.984374 7.738282-.125 11.039063 2.425782 4.617187 3.578125 7.375 9.898437 7.375 16.910156v93.859375c0 1.066406-.425781 2.085937-1.179687 2.835937-.75.75-1.765626 1.167969-2.824219 1.167969zm-148.480469-8.699219 144.480469.679688v-89.839844c0-4.488281-1.636719-8.542968-4.273438-10.585937-1.332031-1.03125-2.722656-1.371094-4.136719-1.003907l-136.070312 35.164063zm0 0" fill="#3762cc"/><path d="m4 463.332031c-1.058594 0-2.070312-.417969-2.820312-1.167969-.753907-.75-1.179688-1.769531-1.179688-2.832031v-93.859375c0-7.011718 2.757812-13.335937 7.375-16.914062 3.296875-2.546875 7.214844-3.410156 11.039062-2.421875l139.066407 35.941406c1.765625.457031 3 2.050781 3 3.875v72.664063c0 2.203124-1.777344 3.992187-3.980469 4l-152.480469.71875c-.007812-.003907-.011719-.003907-.019531-.003907zm11.3125-109.59375c-1.035156 0-2.050781.382813-3.039062 1.144531-2.636719 2.042969-4.277344 6.097657-4.277344 10.585938v89.84375l144.480468-.679688v-65.585937l-136.066406-35.167969c-.367187-.09375-.730468-.140625-1.097656-.140625zm0 0" fill="#3762cc"/><path d="m147.769531 384.894531h34.851563v73.769531h-34.851563zm0 0" fill="#4671c6"/><path d="m182.621094 462.664062h-34.851563c-2.210937 0-4-1.789062-4-4v-73.769531c0-2.207031 1.789063-4 4-4h34.851563c2.207031 0 4 1.792969 4 4v73.769531c0 2.210938-1.792969 4-4 4zm-30.851563-8h26.851563v-65.769531h-26.851563zm0 0" fill="#3762cc"/><path d="m323.546875 117.296875v100.730469l-16.757813 43.746094c-2.433593 6.351562 3.804688 12.589843 10.160157 10.15625l46.40625-17.777344h97.046875c13.03125 0 23.59375-10.5625 23.59375-23.597656v-113.257813c0-13.03125-10.5625-23.597656-23.59375-23.597656h-113.261719c-13.027344 0-23.59375 10.566406-23.59375 23.597656zm0 0" fill="#ffea92"/><path d="m406.507812 118.464844c21.207032 0 35.605469 12.5 35.605469 33.070312 0 21.0625-14.097656 30.984375-33.511719 32.03125-2 .109375-3.597656 1.714844-3.699218 3.714844l-.261719 5.144531c-.105469 2.09375-1.832031 3.734375-3.925781 3.734375h-8.117188c-2.125 0-3.867187-1.6875-3.933594-3.808594l-.539062-16.976562c-.070312-2.222656 1.710938-4.058594 3.929688-4.058594h1.164062c17.882812 0 31.648438-3.164062 31.648438-19.78125 0-11.074218-6.804688-17.878906-18.195313-17.878906-10.085937 0-16.855469 5.097656-18.136719 14.148438-.265625 1.890624-1.960937 3.253906-3.871094 3.253906h-9.148437c-2.371094 0-4.171875-2.074219-3.910156-4.425782 1.839843-16.757812 15.082031-28.167968 34.902343-28.167968zm-10.128906 112.667968c-8.847656 0-15.050781-9.429687-9.355468-19.039062.273437-.457031.652343-.871094 1.085937-1.183594 9.523437-6.839844 19.667969-.511718 19.667969 8.667969 0 6.488281-5.066406 11.554687-11.398438 11.554687zm0 0" fill="#f9a7a7"/><path d="m314.074219 276.46875c-3.066407 0-6.039063-1.207031-8.332031-3.496094-3.355469-3.355468-4.386719-8.199218-2.6875-12.632812l16.492187-43.054688v-99.988281c0-15.21875 12.378906-27.597656 27.597656-27.597656h113.257813c15.21875 0 27.597656 12.378906 27.597656 27.597656v113.257813c0 15.21875-12.378906 27.597656-27.597656 27.597656h-96.304688l-45.71875 17.511718c-1.414062.542969-2.867187.804688-4.304687.804688zm33.070312-178.769531c-10.804687 0-19.597656 8.792969-19.597656 19.597656v100.730469c0 .492187-.089844.976562-.261719 1.429687l-16.757812 43.746094c-.835938 2.171875.457031 3.699219.875 4.113281.414062.417969 1.941406 1.710938 4.117187.878906l46.40625-17.78125c.457031-.171874.941407-.261718 1.429688-.261718h97.046875c10.804687 0 19.597656-8.792969 19.597656-19.597656v-113.257813c0-10.808594-8.792969-19.597656-19.597656-19.597656zm-23.597656 120.328125h.019531zm0 0" fill="#3762cc"/><path d="m290.128906 162.605469c-.972656 0-1.933594-.355469-2.6875-1.035157-5.101562-4.625-11.699218-7.175781-18.566406-7.175781-.242188.019531-.410156.03125-.582031.035157-1.078125.019531-2.109375-.394532-2.875-1.148438-.765625-.75-1.199219-1.777344-1.199219-2.851562v-9.683594c0-1.183594-.03125-2.363282-.082031-3.539063-.042969-1.085937.355469-2.148437 1.109375-2.933593.753906-.789063 1.796875-1.234376 2.886718-1.234376h10.71875c3.355469 0 6.324219-2.027343 7.550782-5.164062.703125-1.789062 2.582031-2.824219 4.464844-2.472656 1.890624.359375 3.257812 2.007812 3.257812 3.933594v29.269531c0 1.582031-.929688 3.015625-2.378906 3.65625-.515625.230469-1.066406.34375-1.617188.34375zm-17.90625-16.054688c4.902344.460938 9.628906 1.929688 13.90625 4.300781v-11.53125c-2.199218 1.113282-4.679687 1.71875-7.277344 1.71875h-6.628906zm0 0" fill="#3762cc"/><path d="m39.9375 161.980469c-.570312 0-1.140625-.121094-1.675781-.367188-1.414063-.652343-2.324219-2.070312-2.324219-3.632812v-34.390625c0-1.679688 1.046875-3.183594 2.625-3.757813 1.582031-.574219 3.347656-.105469 4.429688 1.183594 5.140624 6.101563 11.855468 10.5625 19.410156 12.910156 1.722656.53125 2.875 2.148438 2.816406 3.953125l-.011719.34375c-.027343.839844-.058593 1.675782-.058593 2.523438v9.683594c0 1.074218-.433594 2.101562-1.199219 2.851562-.761719.753906-1.761719 1.203125-2.875 1.148438-.171875-.003907-.347657-.015626-.519531-.027344-.007813 0-.019532 0-.027344 0-6.628906 0-12.996094 2.355468-17.996094 6.625-.734375.625-1.660156.953125-2.59375.953125zm4-28.9375v17.433593c4.097656-2.148437 8.585938-3.488281 13.214844-3.925781v-5.804687c0-.054688 0-.117188 0-.175782-4.777344-1.8125-9.230469-4.351562-13.214844-7.527343zm0 0" fill="#3762cc"/></svg>